<mxfile host="Electron" modified="2023-07-06T15:55:19.600Z" agent="Mozilla/5.0 (Macintosh; Intel Mac OS X 10_15_7) AppleWebKit/537.36 (KHTML, like Gecko) draw.io/21.4.0 Chrome/112.0.5615.204 Electron/24.5.1 Safari/537.36" etag="mymvw3DBuAbrOgB5aW-i" version="21.4.0" type="device">
  <diagram name="Page-1" id="SWpBQIzCj-WOldvhOXZr">
    <mxGraphModel dx="947" dy="1214" grid="0" gridSize="10" guides="1" tooltips="1" connect="1" arrows="1" fold="1" page="1" pageScale="1" pageWidth="850" pageHeight="1100" math="0" shadow="0">
      <root>
        <mxCell id="0" />
        <mxCell id="1" parent="0" />
        <mxCell id="czCp4fPUkudu2dK7gmH2-15" style="edgeStyle=orthogonalEdgeStyle;rounded=0;orthogonalLoop=1;jettySize=auto;html=1;entryX=0;entryY=0.5;entryDx=0;entryDy=0;" edge="1" parent="1" source="czCp4fPUkudu2dK7gmH2-2" target="czCp4fPUkudu2dK7gmH2-14">
          <mxGeometry relative="1" as="geometry" />
        </mxCell>
        <mxCell id="czCp4fPUkudu2dK7gmH2-23" style="edgeStyle=orthogonalEdgeStyle;rounded=0;orthogonalLoop=1;jettySize=auto;html=1;exitX=0.25;exitY=1;exitDx=0;exitDy=0;entryX=1;entryY=0.25;entryDx=0;entryDy=0;" edge="1" parent="1" source="czCp4fPUkudu2dK7gmH2-2" target="czCp4fPUkudu2dK7gmH2-12">
          <mxGeometry relative="1" as="geometry" />
        </mxCell>
        <mxCell id="czCp4fPUkudu2dK7gmH2-24" value="State" style="edgeLabel;html=1;align=center;verticalAlign=middle;resizable=0;points=[];" vertex="1" connectable="0" parent="czCp4fPUkudu2dK7gmH2-23">
          <mxGeometry x="-0.1717" y="-2" relative="1" as="geometry">
            <mxPoint x="1" as="offset" />
          </mxGeometry>
        </mxCell>
        <mxCell id="czCp4fPUkudu2dK7gmH2-2" value="automator" style="shape=process;whiteSpace=wrap;html=1;backgroundOutline=1;" vertex="1" parent="1">
          <mxGeometry x="489" y="462" width="120" height="60" as="geometry" />
        </mxCell>
        <mxCell id="czCp4fPUkudu2dK7gmH2-18" style="edgeStyle=orthogonalEdgeStyle;rounded=0;orthogonalLoop=1;jettySize=auto;html=1;entryX=0;entryY=0.5;entryDx=0;entryDy=0;" edge="1" parent="1" source="czCp4fPUkudu2dK7gmH2-3" target="czCp4fPUkudu2dK7gmH2-12">
          <mxGeometry relative="1" as="geometry">
            <Array as="points">
              <mxPoint x="164" y="668" />
            </Array>
          </mxGeometry>
        </mxCell>
        <mxCell id="czCp4fPUkudu2dK7gmH2-20" value="Updates" style="edgeLabel;html=1;align=center;verticalAlign=middle;resizable=0;points=[];" vertex="1" connectable="0" parent="czCp4fPUkudu2dK7gmH2-18">
          <mxGeometry x="-0.5968" relative="1" as="geometry">
            <mxPoint y="-9" as="offset" />
          </mxGeometry>
        </mxCell>
        <mxCell id="czCp4fPUkudu2dK7gmH2-3" value="WebServer" style="shape=process;whiteSpace=wrap;html=1;backgroundOutline=1;" vertex="1" parent="1">
          <mxGeometry x="104" y="463" width="120" height="60" as="geometry" />
        </mxCell>
        <mxCell id="czCp4fPUkudu2dK7gmH2-17" style="edgeStyle=orthogonalEdgeStyle;rounded=0;orthogonalLoop=1;jettySize=auto;html=1;entryX=0.5;entryY=0;entryDx=0;entryDy=0;" edge="1" parent="1" source="czCp4fPUkudu2dK7gmH2-4" target="czCp4fPUkudu2dK7gmH2-12">
          <mxGeometry relative="1" as="geometry" />
        </mxCell>
        <mxCell id="czCp4fPUkudu2dK7gmH2-19" value="Updates" style="edgeLabel;html=1;align=center;verticalAlign=middle;resizable=0;points=[];" vertex="1" connectable="0" parent="czCp4fPUkudu2dK7gmH2-17">
          <mxGeometry x="-0.0526" y="-2" relative="1" as="geometry">
            <mxPoint as="offset" />
          </mxGeometry>
        </mxCell>
        <mxCell id="czCp4fPUkudu2dK7gmH2-4" value="sensor updater" style="shape=process;whiteSpace=wrap;html=1;backgroundOutline=1;" vertex="1" parent="1">
          <mxGeometry x="322" y="463" width="120" height="60" as="geometry" />
        </mxCell>
        <mxCell id="czCp4fPUkudu2dK7gmH2-9" value="View" style="rounded=1;whiteSpace=wrap;html=1;" vertex="1" parent="1">
          <mxGeometry x="412" y="96" width="120" height="60" as="geometry" />
        </mxCell>
        <mxCell id="czCp4fPUkudu2dK7gmH2-10" value="Controller" style="rounded=1;whiteSpace=wrap;html=1;" vertex="1" parent="1">
          <mxGeometry x="324" y="184" width="120" height="60" as="geometry" />
        </mxCell>
        <mxCell id="czCp4fPUkudu2dK7gmH2-11" value="Model" style="rounded=1;whiteSpace=wrap;html=1;" vertex="1" parent="1">
          <mxGeometry x="230" y="96" width="120" height="60" as="geometry" />
        </mxCell>
        <mxCell id="czCp4fPUkudu2dK7gmH2-16" style="edgeStyle=orthogonalEdgeStyle;rounded=0;orthogonalLoop=1;jettySize=auto;html=1;entryX=0.5;entryY=1;entryDx=0;entryDy=0;" edge="1" parent="1" source="czCp4fPUkudu2dK7gmH2-12" target="czCp4fPUkudu2dK7gmH2-2">
          <mxGeometry relative="1" as="geometry" />
        </mxCell>
        <mxCell id="czCp4fPUkudu2dK7gmH2-21" value="Reads" style="edgeLabel;html=1;align=center;verticalAlign=middle;resizable=0;points=[];" vertex="1" connectable="0" parent="czCp4fPUkudu2dK7gmH2-16">
          <mxGeometry x="0.4971" y="2" relative="1" as="geometry">
            <mxPoint x="1" as="offset" />
          </mxGeometry>
        </mxCell>
        <mxCell id="czCp4fPUkudu2dK7gmH2-25" style="edgeStyle=orthogonalEdgeStyle;rounded=0;orthogonalLoop=1;jettySize=auto;html=1;entryX=0.5;entryY=0;entryDx=0;entryDy=0;" edge="1" parent="1" source="czCp4fPUkudu2dK7gmH2-12" target="czCp4fPUkudu2dK7gmH2-22">
          <mxGeometry relative="1" as="geometry" />
        </mxCell>
        <mxCell id="czCp4fPUkudu2dK7gmH2-12" value="Parameters Dict" style="rounded=1;whiteSpace=wrap;html=1;" vertex="1" parent="1">
          <mxGeometry x="332" y="637" width="100" height="61" as="geometry" />
        </mxCell>
        <mxCell id="czCp4fPUkudu2dK7gmH2-14" value="Control A/C" style="rounded=1;whiteSpace=wrap;html=1;" vertex="1" parent="1">
          <mxGeometry x="660" y="461" width="100" height="61" as="geometry" />
        </mxCell>
        <mxCell id="czCp4fPUkudu2dK7gmH2-27" style="edgeStyle=orthogonalEdgeStyle;rounded=0;orthogonalLoop=1;jettySize=auto;html=1;" edge="1" parent="1" source="czCp4fPUkudu2dK7gmH2-22" target="czCp4fPUkudu2dK7gmH2-26">
          <mxGeometry relative="1" as="geometry" />
        </mxCell>
        <mxCell id="czCp4fPUkudu2dK7gmH2-22" value="Display Updater" style="shape=process;whiteSpace=wrap;html=1;backgroundOutline=1;" vertex="1" parent="1">
          <mxGeometry x="322" y="756" width="120" height="60" as="geometry" />
        </mxCell>
        <mxCell id="czCp4fPUkudu2dK7gmH2-26" value="Update Display" style="rounded=1;whiteSpace=wrap;html=1;" vertex="1" parent="1">
          <mxGeometry x="543" y="756" width="100" height="61" as="geometry" />
        </mxCell>
        <mxCell id="czCp4fPUkudu2dK7gmH2-31" style="edgeStyle=orthogonalEdgeStyle;rounded=0;orthogonalLoop=1;jettySize=auto;html=1;entryX=0;entryY=0.75;entryDx=0;entryDy=0;" edge="1" parent="1" source="czCp4fPUkudu2dK7gmH2-28" target="czCp4fPUkudu2dK7gmH2-12">
          <mxGeometry relative="1" as="geometry" />
        </mxCell>
        <mxCell id="czCp4fPUkudu2dK7gmH2-28" value="Handler" style="shape=process;whiteSpace=wrap;html=1;backgroundOutline=1;" vertex="1" parent="1">
          <mxGeometry x="129" y="756" width="120" height="60" as="geometry" />
        </mxCell>
        <mxCell id="czCp4fPUkudu2dK7gmH2-32" style="edgeStyle=orthogonalEdgeStyle;rounded=0;orthogonalLoop=1;jettySize=auto;html=1;entryX=0.5;entryY=1;entryDx=0;entryDy=0;" edge="1" parent="1" source="czCp4fPUkudu2dK7gmH2-30" target="czCp4fPUkudu2dK7gmH2-28">
          <mxGeometry relative="1" as="geometry" />
        </mxCell>
        <mxCell id="czCp4fPUkudu2dK7gmH2-30" value="Up/Down&lt;br&gt;Button" style="rounded=1;whiteSpace=wrap;html=1;direction=south;" vertex="1" parent="1">
          <mxGeometry x="124.25" y="891" width="129.5" height="68" as="geometry" />
        </mxCell>
      </root>
    </mxGraphModel>
  </diagram>
</mxfile>
